<svg width="110" height="162" viewBox="0 0 110 162" fill="none" xmlns="http://www.w3.org/2000/svg">
<path d="M54.488 84.7064C49.368 82.7064 47.408 79.3364 41.148 78.4764C27.598 76.6264 23.038 92.6464 26.368 102.586C27.848 106.976 29.908 111.166 33.088 114.616C44.938 127.496 67.628 141.316 85.868 136.516C98.278 133.256 107.478 122.316 108.628 109.606C109.858 96.0264 101.348 78.8464 94.938 66.7564C88.0047 53.6697 76.2046 33.6531 59.538 6.70641C58.2046 4.55308 56.7179 2.72974 55.0779 1.23641C54.9841 1.15038 54.873 1.08527 54.7521 1.04535C54.6312 1.00544 54.5031 0.991639 54.3765 1.00487C54.2498 1.0181 54.1274 1.05806 54.0173 1.1221C53.9073 1.18615 53.8121 1.27283 53.738 1.37641C37.178 24.3831 23.008 48.2664 11.228 73.0264C7.91797 79.9964 4.47795 89.2264 2.70795 95.4564C-1.96205 111.926 3.23797 131.246 14.728 143.796C28.998 159.376 54.938 165.406 74.518 157.416C79.158 155.516 91.218 149.416 90.408 143.426C90.368 143.133 90.198 142.983 89.898 142.976C87.918 142.916 86.588 142.696 84.768 143.746C78.978 147.096 70.5079 152.996 63.9479 153.896C46.2079 156.316 31.798 151.6 20.718 139.746C15.5513 134.213 11.8913 128.683 9.73798 123.156C4.85798 110.616 7.87797 100.056 12.918 87.6464C23.908 60.5764 36.688 39.0264 53.708 12.2264C53.8073 12.0726 53.9388 11.9422 54.0933 11.844C54.2479 11.7458 54.4218 11.6822 54.6032 11.6575C54.7846 11.6328 54.9693 11.6476 55.1444 11.7009C55.3196 11.7543 55.4811 11.8448 55.618 11.9664C55.9847 12.2997 56.3546 12.7764 56.728 13.3964C66.3213 29.5097 75.6879 45.7564 84.8279 62.1364C91.4946 74.0964 96.658 86.6497 100.318 99.7964C101.545 104.21 101.971 107.88 101.598 110.806C99.968 123.486 87.088 133.056 74.318 130.126C57.918 126.366 37.718 117.966 32.228 99.5164C30.418 93.4364 32.7579 84.9864 39.9479 85.2364C44.5279 85.4064 49.308 89.9564 52.428 93.3164C52.6946 93.6035 53.0155 93.8349 53.3722 93.997C53.7289 94.1592 54.1142 94.2489 54.5058 94.261C54.8974 94.2731 55.2876 94.2073 55.6536 94.0675C56.0196 93.9276 56.3541 93.7165 56.6379 93.4464C59.0913 91.1131 61.7179 88.7897 64.5179 86.4764C70.4779 81.5564 76.058 89.2864 77.008 94.2364C78.418 101.616 73.508 107.126 68.908 112.266C67.618 113.716 67.298 115.256 67.208 117.086C67.1946 117.373 67.3147 117.576 67.568 117.696C69.6947 118.676 71.428 118.62 72.768 117.526C78.958 112.476 84.628 103.006 84.468 94.9964C84.268 85.3164 74.638 75.0564 64.168 78.9164C61.238 79.9864 58.448 82.7564 55.478 84.6064C55.3288 84.6996 55.1614 84.7572 54.9895 84.7746C54.8176 84.7919 54.6458 84.7686 54.488 84.7064Z" fill="#FF0000" stroke="#AB0C12" stroke-width="2"/>
</svg>
